<svg width="20" height="20" viewBox="0 0 20 20" fill="none" xmlns="http://www.w3.org/2000/svg">
    <mask id="path-1-inside-1_60_75213" fill="white">
        <path fill-rule="evenodd" clip-rule="evenodd"
            d="M17.5 7.36111C17.5 3.43375 14.1421 0.25 10 0.25C5.85786 0.25 2.5 3.43375 2.5 7.36111V16.25H17.5V7.36111Z" />
    </mask>
    <path
        d="M2.5 16.25H0.9V17.85H2.5V16.25ZM17.5 16.25V17.85H19.1V16.25H17.5ZM10 1.85C13.3398 1.85 15.9 4.39661 15.9 7.36111H19.1C19.1 2.47089 14.9445 -1.35 10 -1.35V1.85ZM4.1 7.36111C4.1 4.39661 6.66018 1.85 10 1.85V-1.35C5.05555 -1.35 0.9 2.47089 0.9 7.36111H4.1ZM4.1 16.25V7.36111H0.9V16.25H4.1ZM17.5 14.65H2.5V17.85H17.5V14.65ZM15.9 7.36111V16.25H19.1V7.36111H15.9Z"
        fill="white" mask="url(#path-1-inside-1_60_75213)" />
    <path
        d="M12.5 17.25C12.5 17.913 12.2366 18.5489 11.7678 19.0178C11.2989 19.4866 10.663 19.75 10 19.75C9.33696 19.75 8.70107 19.4866 8.23223 19.0178C7.76339 18.5489 7.5 17.913 7.5 17.25L10 17.25H12.5Z"
        fill="white" />
    <circle cx="17" cy="3" r="3" fill="#EA215D" />
</svg>